<?xml version="1.0" encoding="UTF-8" standalone="no"?>
<!-- Created with Inkscape (http://www.inkscape.org/) -->

<svg
   xmlns:dc="http://purl.org/dc/elements/1.1/"
   xmlns:cc="http://creativecommons.org/ns#"
   xmlns:rdf="http://www.w3.org/1999/02/22-rdf-syntax-ns#"
   xmlns:svg="http://www.w3.org/2000/svg"
   xmlns="http://www.w3.org/2000/svg"
   xmlns:sodipodi="http://sodipodi.sourceforge.net/DTD/sodipodi-0.dtd"
   xmlns:inkscape="http://www.inkscape.org/namespaces/inkscape"
   width="128.41643"
   height="114.96446"
   id="svg4269"
   version="1.1"
   inkscape:version="0.48.5 r10040"
   sodipodi:docname="New document 16">
  <defs
     id="defs4271" />
  <sodipodi:namedview
     id="base"
     pagecolor="#ffffff"
     bordercolor="#666666"
     borderopacity="1.0"
     inkscape:pageopacity="0.0"
     inkscape:pageshadow="2"
     inkscape:zoom="3.959798"
     inkscape:cx="86.463397"
     inkscape:cy="55.458078"
     inkscape:document-units="px"
     inkscape:current-layer="layer1"
     showgrid="false"
     showborder="false"
     inkscape:showpageshadow="false"
     fit-margin-top="0"
     fit-margin-left="0"
     fit-margin-right="0"
     fit-margin-bottom="0"
     inkscape:window-width="1920"
     inkscape:window-height="1061"
     inkscape:window-x="0"
     inkscape:window-y="19"
     inkscape:window-maximized="0" />
  <metadata
     id="metadata4274">
    <rdf:RDF>
      <cc:Work
         rdf:about="">
        <dc:format>image/svg+xml</dc:format>
        <dc:type
           rdf:resource="http://purl.org/dc/dcmitype/StillImage" />
        <dc:title></dc:title>
      </cc:Work>
    </rdf:RDF>
  </metadata>
  <g
     inkscape:label="Layer 1"
     inkscape:groupmode="layer"
     id="layer1"
     transform="translate(-476.47252,-729.95026)">
    <path
       transform="translate(313.50352,522.26688)"
       sodipodi:type="arc"
       style="fill:none;stroke:#000000;stroke-width:1;stroke-miterlimit:4;stroke-opacity:1;stroke-dasharray:none"
       id="path2989-3-5-3-5"
       sodipodi:cx="237.5"
       sodipodi:cy="264.86218"
       sodipodi:rx="7.5"
       sodipodi:ry="7.5"
       d="m 245,264.86218 c 0,4.14214 -3.35786,7.5 -7.5,7.5 -4.14214,0 -7.5,-3.35786 -7.5,-7.5 0,-4.14213 3.35786,-7.5 7.5,-7.5 4.14214,0 7.5,3.35787 7.5,7.5 z" />
    <path
       transform="translate(359.38894,473.07526)"
       sodipodi:type="arc"
       style="fill:none;stroke:#000000;stroke-width:1;stroke-miterlimit:4;stroke-opacity:1;stroke-dasharray:none"
       id="path2989-3-5-3-5-1"
       sodipodi:cx="237.5"
       sodipodi:cy="264.86218"
       sodipodi:rx="7.5"
       sodipodi:ry="7.5"
       d="m 245,264.86218 c 0,4.14214 -3.35786,7.5 -7.5,7.5 -4.14214,0 -7.5,-3.35786 -7.5,-7.5 0,-4.14213 3.35786,-7.5 7.5,-7.5 4.14214,0 7.5,3.35787 7.5,7.5 z" />
    <path
       transform="translate(316.2062,572.03972)"
       sodipodi:type="arc"
       style="fill:none;stroke:#000000;stroke-width:1;stroke-miterlimit:4;stroke-opacity:1;stroke-dasharray:none"
       id="path2989-3-5-3-5-4"
       sodipodi:cx="237.5"
       sodipodi:cy="264.86218"
       sodipodi:rx="7.5"
       sodipodi:ry="7.5"
       d="m 245,264.86218 c 0,4.14214 -3.35786,7.5 -7.5,7.5 -4.14214,0 -7.5,-3.35786 -7.5,-7.5 0,-4.14213 3.35786,-7.5 7.5,-7.5 4.14214,0 7.5,3.35787 7.5,7.5 z" />
    <path
       transform="translate(246.97252,495.34029)"
       sodipodi:type="arc"
       style="fill:none;stroke:#000000;stroke-width:1;stroke-miterlimit:4;stroke-opacity:1;stroke-dasharray:none"
       id="path2989-3-5-3-5-9"
       sodipodi:cx="237.5"
       sodipodi:cy="264.86218"
       sodipodi:rx="7.5"
       sodipodi:ry="7.5"
       d="m 245,264.86218 c 0,4.14214 -3.35786,7.5 -7.5,7.5 -4.14214,0 -7.5,-3.35786 -7.5,-7.5 0,-4.14213 3.35786,-7.5 7.5,-7.5 4.14214,0 7.5,3.35787 7.5,7.5 z" />
    <path
       style="fill:none;stroke:#000000;stroke-width:1px;stroke-linecap:butt;stroke-linejoin:miter;stroke-opacity:1"
       d="M 543.68209,784.45049 491.7178,762.4862"
       id="path3282"
       inkscape:connector-curvature="0" />
    <path
       style="fill:#000000;stroke:#000000;stroke-width:0.02232143;stroke-miterlimit:4;stroke-opacity:1;stroke-dasharray:none"
       d="m 550.85106,780.05814 c -1.11777,-0.006 -2.2223,0.30513 -3.2031,0.82978 -1.81629,0.97953 -3.17846,2.77847 -3.58394,4.80656 -0.16637,0.78296 -0.17296,1.59604 -0.0838,2.38961 0.24498,1.84343 1.25744,3.56626 2.74038,4.68553 1.13409,0.86664 2.53402,1.3789 3.96093,1.43717 0.68872,0.0141 1.38247,-0.0261 2.05009,-0.20539 1.29876,-0.3275 2.50364,-1.0284 3.41462,-2.01248 1.07707,-1.10797 1.74068,-2.59345 1.90843,-4.1259 0.0216,-0.55867 0.0414,-1.12275 -0.0242,-1.67881 -0.22151,-1.54319 -0.93681,-3.02962 -2.07489,-4.10499 -1.06069,-1.07773 -2.4991,-1.75856 -3.99033,-1.97452 -0.3689,-0.0489 -0.74258,-0.0474 -1.11417,-0.0466 z"
       id="path4062"
       inkscape:connector-curvature="0" />
    <text
       xml:space="preserve"
       style="font-size:10px;font-style:normal;font-weight:normal;line-height:125%;letter-spacing:0px;word-spacing:0px;fill:#000000;fill-opacity:1;stroke:none;font-family:Sans"
       x="516.00348"
       y="770.16479"
       id="text4064"
       sodipodi:linespacing="125%"><tspan
         sodipodi:role="line"
         id="tspan4066"
         x="516.00348"
         y="770.16479">3</tspan></text>
    <text
       xml:space="preserve"
       style="font-size:10px;font-style:normal;font-weight:normal;line-height:125%;letter-spacing:0px;word-spacing:0px;fill:#000000;fill-opacity:1;stroke:none;font-family:Sans"
       x="567.78674"
       y="762.55457"
       id="text4064-5"
       sodipodi:linespacing="125%"><tspan
         sodipodi:role="line"
         id="tspan4066-77"
         x="567.78674"
         y="762.55457">3</tspan></text>
    <text
       xml:space="preserve"
       style="font-size:10px;font-style:normal;font-weight:normal;line-height:125%;letter-spacing:0px;word-spacing:0px;fill:#000000;fill-opacity:1;stroke:none;font-family:Sans"
       x="554.5202"
       y="813.63123"
       id="text4064-28"
       sodipodi:linespacing="125%"><tspan
         sodipodi:role="line"
         id="tspan4066-9"
         x="554.5202"
         y="813.63123">3</tspan></text>
    <path
       style="fill:none;stroke:#000000;stroke-width:1px;stroke-linecap:butt;stroke-linejoin:miter;stroke-opacity:1"
       d="m 551.25,794.68361 2.32143,34.82143"
       id="path4352"
       inkscape:connector-curvature="0" />
    <path
       style="fill:none;stroke:#000000;stroke-width:1px;stroke-linecap:butt;stroke-linejoin:miter;stroke-opacity:1"
       d="M 592.58074,744.13939 557.2254,783.03026"
       id="path4354"
       inkscape:connector-curvature="0" />
  </g>
</svg>
