<?xml version="1.0" encoding="UTF-8" standalone="no"?>
<!-- Created with Inkscape (http://www.inkscape.org/) -->

<svg
   xmlns:dc="http://purl.org/dc/elements/1.1/"
   xmlns:cc="http://creativecommons.org/ns#"
   xmlns:rdf="http://www.w3.org/1999/02/22-rdf-syntax-ns#"
   xmlns:svg="http://www.w3.org/2000/svg"
   xmlns="http://www.w3.org/2000/svg"
   xmlns:sodipodi="http://sodipodi.sourceforge.net/DTD/sodipodi-0.dtd"
   xmlns:inkscape="http://www.inkscape.org/namespaces/inkscape"
   width="113.98479"
   height="110.95434"
   id="svg4021"
   version="1.1"
   inkscape:version="0.48.5 r10040"
   sodipodi:docname="New document 8">
  <defs
     id="defs4023" />
  <sodipodi:namedview
     id="base"
     pagecolor="#ffffff"
     bordercolor="#666666"
     borderopacity="1.0"
     inkscape:pageopacity="0.0"
     inkscape:pageshadow="2"
     inkscape:zoom="3.959798"
     inkscape:cx="86.590442"
     inkscape:cy="36.200249"
     inkscape:document-units="px"
     inkscape:current-layer="layer1"
     showgrid="false"
     showborder="false"
     inkscape:showpageshadow="false"
     fit-margin-top="0"
     fit-margin-left="0"
     fit-margin-right="0"
     fit-margin-bottom="0"
     inkscape:window-width="1920"
     inkscape:window-height="1061"
     inkscape:window-x="0"
     inkscape:window-y="19"
     inkscape:window-maximized="0" />
  <metadata
     id="metadata4026">
    <rdf:RDF>
      <cc:Work
         rdf:about="">
        <dc:format>image/svg+xml</dc:format>
        <dc:type
           rdf:resource="http://purl.org/dc/dcmitype/StillImage" />
        <dc:title></dc:title>
      </cc:Work>
    </rdf:RDF>
  </metadata>
  <g
     inkscape:label="Layer 1"
     inkscape:groupmode="layer"
     id="layer1"
     transform="translate(-186.95944,-85.23516)">
    <path
       transform="translate(5.4293103,-127.57653)"
       sodipodi:type="arc"
       style="fill:none;stroke:#000000;stroke-width:1;stroke-miterlimit:4;stroke-opacity:1;stroke-dasharray:none"
       id="path2989-3-5"
       sodipodi:cx="237.5"
       sodipodi:cy="264.86218"
       sodipodi:rx="7.5"
       sodipodi:ry="7.5"
       d="m 245,264.86218 c 0,4.14214 -3.35786,7.5 -7.5,7.5 -4.14214,0 -7.5,-3.35786 -7.5,-7.5 0,-4.14213 3.35786,-7.5 7.5,-7.5 4.14214,0 7.5,3.35787 7.5,7.5 z" />
    <path
       transform="translate(35.746264,-171.38731)"
       sodipodi:type="arc"
       style="opacity:0.3;fill:none;stroke:#000000;stroke-width:1;stroke-miterlimit:4;stroke-opacity:1;stroke-dasharray:none"
       id="path2989-3-5-9"
       sodipodi:cx="237.5"
       sodipodi:cy="264.86218"
       sodipodi:rx="7.5"
       sodipodi:ry="7.5"
       d="m 245,264.86218 c 0,4.14214 -3.35786,7.5 -7.5,7.5 -4.14214,0 -7.5,-3.35786 -7.5,-7.5 0,-4.14213 3.35786,-7.5 7.5,-7.5 4.14214,0 7.5,3.35787 7.5,7.5 z" />
    <path
       transform="translate(55.444238,-125.17283)"
       sodipodi:type="arc"
       style="opacity:0.3;fill:none;stroke:#000000;stroke-width:1;stroke-miterlimit:4;stroke-opacity:1;stroke-dasharray:none"
       id="path2989-3-5-5"
       sodipodi:cx="237.5"
       sodipodi:cy="264.86218"
       sodipodi:rx="7.5"
       sodipodi:ry="7.5"
       d="m 245,264.86218 c 0,4.14214 -3.35786,7.5 -7.5,7.5 -4.14214,0 -7.5,-3.35786 -7.5,-7.5 0,-4.14213 3.35786,-7.5 7.5,-7.5 4.14214,0 7.5,3.35787 7.5,7.5 z" />
    <path
       transform="translate(9.9873742,-76.685501)"
       sodipodi:type="arc"
       style="opacity:0.3;fill:none;stroke:#000000;stroke-width:1;stroke-miterlimit:4;stroke-opacity:1;stroke-dasharray:none"
       id="path2989-3-5-8"
       sodipodi:cx="237.5"
       sodipodi:cy="264.86218"
       sodipodi:rx="7.5"
       sodipodi:ry="7.5"
       d="m 245,264.86218 c 0,4.14214 -3.35786,7.5 -7.5,7.5 -4.14214,0 -7.5,-3.35786 -7.5,-7.5 0,-4.14213 3.35786,-7.5 7.5,-7.5 4.14214,0 7.5,3.35787 7.5,7.5 z" />
    <path
       transform="translate(-42.540559,-103.95962)"
       sodipodi:type="arc"
       style="opacity:0.3;fill:none;stroke:#000000;stroke-width:1;stroke-miterlimit:4;stroke-opacity:1;stroke-dasharray:none"
       id="path2989-3-5-89"
       sodipodi:cx="237.5"
       sodipodi:cy="264.86218"
       sodipodi:rx="7.5"
       sodipodi:ry="7.5"
       d="m 245,264.86218 c 0,4.14214 -3.35786,7.5 -7.5,7.5 -4.14214,0 -7.5,-3.35786 -7.5,-7.5 0,-4.14213 3.35786,-7.5 7.5,-7.5 4.14214,0 7.5,3.35787 7.5,7.5 z" />
    <path
       transform="translate(-27.893347,-171.63984)"
       sodipodi:type="arc"
       style="opacity:0.3;fill:none;stroke:#000000;stroke-width:1;stroke-miterlimit:4;stroke-opacity:1;stroke-dasharray:none"
       id="path2989-3-5-3"
       sodipodi:cx="237.5"
       sodipodi:cy="264.86218"
       sodipodi:rx="7.5"
       sodipodi:ry="7.5"
       d="m 245,264.86218 c 0,4.14214 -3.35786,7.5 -7.5,7.5 -4.14214,0 -7.5,-3.35786 -7.5,-7.5 0,-4.14213 3.35786,-7.5 7.5,-7.5 4.14214,0 7.5,3.35787 7.5,7.5 z" />
    <path
       style="fill:none;stroke:#000000;stroke-width:1px;stroke-linecap:butt;stroke-linejoin:miter;stroke-opacity:1"
       d="M 243.57143,144.68361 246.25,180.57647"
       id="path4112"
       inkscape:connector-curvature="0" />
    <path
       style="fill:none;stroke:#000000;stroke-width:1px;stroke-linecap:butt;stroke-linejoin:miter;stroke-opacity:1"
       d="m 285.53571,139.32647 -35.35714,-1.07143"
       id="path4114"
       inkscape:connector-curvature="0" />
    <path
       style="fill:none;stroke:#000000;stroke-width:1px;stroke-linecap:butt;stroke-linejoin:miter;stroke-opacity:1"
       d="M 268.57143,99.326466 247.5,131.46932"
       id="path4116"
       inkscape:connector-curvature="0" />
    <path
       style="fill:none;stroke:#000000;stroke-width:1px;stroke-linecap:butt;stroke-linejoin:miter;stroke-opacity:1"
       d="m 212.85714,99.862181 24.82143,31.785709"
       id="path4118"
       inkscape:connector-curvature="0" />
    <path
       style="fill:none;stroke:#000000;stroke-width:1px;stroke-linecap:butt;stroke-linejoin:miter;stroke-opacity:1"
       d="m 236.60714,141.11218 -34.46428,16.96429"
       id="path4120"
       inkscape:connector-curvature="0" />
  </g>
</svg>
