<?xml version="1.0" encoding="UTF-8" standalone="no"?>
<!-- Created with Inkscape (http://www.inkscape.org/) -->

<svg
   xmlns:dc="http://purl.org/dc/elements/1.1/"
   xmlns:cc="http://creativecommons.org/ns#"
   xmlns:rdf="http://www.w3.org/1999/02/22-rdf-syntax-ns#"
   xmlns:svg="http://www.w3.org/2000/svg"
   xmlns="http://www.w3.org/2000/svg"
   xmlns:sodipodi="http://sodipodi.sourceforge.net/DTD/sodipodi-0.dtd"
   xmlns:inkscape="http://www.inkscape.org/namespaces/inkscape"
   width="154.49687"
   height="130.65231"
   id="svg3192"
   version="1.1"
   inkscape:version="0.48.5 r10040"
   sodipodi:docname="friendship-paradox-5.svg">
  <defs
     id="defs3194" />
  <sodipodi:namedview
     id="base"
     pagecolor="#ffffff"
     bordercolor="#666666"
     borderopacity="1.0"
     inkscape:pageopacity="0.0"
     inkscape:pageshadow="2"
     inkscape:zoom="3.959798"
     inkscape:cx="43.33162"
     inkscape:cy="57.017351"
     inkscape:document-units="px"
     inkscape:current-layer="layer1"
     showgrid="false"
     showborder="false"
     inkscape:showpageshadow="false"
     fit-margin-top="0"
     fit-margin-left="0"
     fit-margin-right="0"
     fit-margin-bottom="0"
     inkscape:window-width="1920"
     inkscape:window-height="1061"
     inkscape:window-x="0"
     inkscape:window-y="19"
     inkscape:window-maximized="0" />
  <metadata
     id="metadata3197">
    <rdf:RDF>
      <cc:Work
         rdf:about="">
        <dc:format>image/svg+xml</dc:format>
        <dc:type
           rdf:resource="http://purl.org/dc/dcmitype/StillImage" />
        <dc:title></dc:title>
      </cc:Work>
    </rdf:RDF>
  </metadata>
  <g
     inkscape:label="Layer 1"
     inkscape:groupmode="layer"
     id="layer1"
     transform="translate(-201.39091,-217.81768)">
    <path
       transform="translate(60.714285,27.321428)"
       sodipodi:type="arc"
       style="fill:none;stroke:#000000;stroke-width:1;stroke-miterlimit:4;stroke-opacity:1;stroke-dasharray:none"
       id="path2989-3-5-3-5"
       sodipodi:cx="237.5"
       sodipodi:cy="264.86218"
       sodipodi:rx="7.5"
       sodipodi:ry="7.5"
       d="m 245,264.86218 c 0,4.14214 -3.35786,7.5 -7.5,7.5 -4.14214,0 -7.5,-3.35786 -7.5,-7.5 0,-4.14213 3.35786,-7.5 7.5,-7.5 4.14214,0 7.5,3.35787 7.5,7.5 z" />
    <path
       transform="translate(110.38778,-27.426035)"
       sodipodi:type="arc"
       style="fill:none;stroke:#000000;stroke-width:1;stroke-miterlimit:4;stroke-opacity:1;stroke-dasharray:none"
       id="path2989-3-5-3-5-1"
       sodipodi:cx="237.5"
       sodipodi:cy="264.86218"
       sodipodi:rx="7.5"
       sodipodi:ry="7.5"
       d="m 245,264.86218 c 0,4.14214 -3.35786,7.5 -7.5,7.5 -4.14214,0 -7.5,-3.35786 -7.5,-7.5 0,-4.14213 3.35786,-7.5 7.5,-7.5 4.14214,0 7.5,3.35787 7.5,7.5 z" />
    <path
       transform="translate(102.52411,75.487127)"
       sodipodi:type="arc"
       style="fill:none;stroke:#000000;stroke-width:1;stroke-miterlimit:4;stroke-opacity:1;stroke-dasharray:none"
       id="path2989-3-5-3-5-4"
       sodipodi:cx="237.5"
       sodipodi:cy="264.86218"
       sodipodi:rx="7.5"
       sodipodi:ry="7.5"
       d="m 245,264.86218 c 0,4.14214 -3.35786,7.5 -7.5,7.5 -4.14214,0 -7.5,-3.35786 -7.5,-7.5 0,-4.14213 3.35786,-7.5 7.5,-7.5 4.14214,0 7.5,3.35787 7.5,7.5 z" />
    <path
       transform="translate(-5.8167129,0.39484007)"
       sodipodi:type="arc"
       style="fill:none;stroke:#000000;stroke-width:1;stroke-miterlimit:4;stroke-opacity:1;stroke-dasharray:none"
       id="path2989-3-5-3-5-9"
       sodipodi:cx="237.5"
       sodipodi:cy="264.86218"
       sodipodi:rx="7.5"
       sodipodi:ry="7.5"
       d="m 245,264.86218 c 0,4.14214 -3.35786,7.5 -7.5,7.5 -4.14214,0 -7.5,-3.35786 -7.5,-7.5 0,-4.14213 3.35786,-7.5 7.5,-7.5 4.14214,0 7.5,3.35787 7.5,7.5 z" />
    <path
       transform="translate(23.119357,75.594993)"
       sodipodi:type="arc"
       style="opacity:0.3;fill:none;stroke:#000000;stroke-width:1;stroke-miterlimit:4;stroke-opacity:1;stroke-dasharray:none"
       id="path2989-3-5-3-5-0"
       sodipodi:cx="237.5"
       sodipodi:cy="264.86218"
       sodipodi:rx="7.5"
       sodipodi:ry="7.5"
       d="m 245,264.86218 c 0,4.14214 -3.35786,7.5 -7.5,7.5 -4.14214,0 -7.5,-3.35786 -7.5,-7.5 0,-4.14213 3.35786,-7.5 7.5,-7.5 4.14214,0 7.5,3.35787 7.5,7.5 z" />
    <path
       transform="translate(-28.109088,37.681456)"
       sodipodi:type="arc"
       style="opacity:0.3;fill:none;stroke:#000000;stroke-width:1;stroke-miterlimit:4;stroke-opacity:1;stroke-dasharray:none"
       id="path2989-3-5-3-5-8"
       sodipodi:cx="237.5"
       sodipodi:cy="264.86218"
       sodipodi:rx="7.5"
       sodipodi:ry="7.5"
       d="m 245,264.86218 c 0,4.14214 -3.35786,7.5 -7.5,7.5 -4.14214,0 -7.5,-3.35786 -7.5,-7.5 0,-4.14213 3.35786,-7.5 7.5,-7.5 4.14214,0 7.5,3.35787 7.5,7.5 z" />
    <path
       transform="translate(14.533061,-39.057321)"
       sodipodi:type="arc"
       style="opacity:0.3;fill:none;stroke:#000000;stroke-width:1;stroke-miterlimit:4;stroke-opacity:1;stroke-dasharray:none"
       id="path2989-3-5-3-5-96"
       sodipodi:cx="237.5"
       sodipodi:cy="264.86218"
       sodipodi:rx="7.5"
       sodipodi:ry="7.5"
       d="m 245,264.86218 c 0,4.14214 -3.35786,7.5 -7.5,7.5 -4.14214,0 -7.5,-3.35786 -7.5,-7.5 0,-4.14213 3.35786,-7.5 7.5,-7.5 4.14214,0 7.5,3.35787 7.5,7.5 z" />
    <path
       style="fill:none;stroke:#000000;stroke-width:1px;stroke-linecap:butt;stroke-linejoin:miter;stroke-opacity:1"
       d="m 302.03561,298.66211 33.20877,36.11296"
       id="path3278"
       inkscape:connector-curvature="0" />
    <path
       style="fill:none;stroke:#000000;stroke-width:1px;stroke-linecap:butt;stroke-linejoin:miter;stroke-opacity:1"
       d="m 342.85714,242.8979 -39.28571,43.75"
       id="path3280"
       inkscape:connector-curvature="0" />
    <path
       style="fill:none;stroke:#000000;stroke-width:1px;stroke-linecap:butt;stroke-linejoin:miter;stroke-opacity:1"
       d="M 290.89286,289.50504 238.92857,267.54075"
       id="path3282"
       inkscape:connector-curvature="0" />
    <path
       style="opacity:0.3;fill:none;stroke:#000000;stroke-width:1px;stroke-linecap:butt;stroke-linejoin:miter;stroke-opacity:1"
       d="m 268.57143,341.6479 64.10714,-0.17858"
       id="path3288"
       inkscape:connector-curvature="0" />
    <path
       style="opacity:0.3;fill:none;stroke:#000000;stroke-width:1px;stroke-linecap:butt;stroke-linejoin:miter;stroke-opacity:1"
       d="m 248.21429,232.54075 -12.32143,26.07143"
       id="path3290"
       inkscape:connector-curvature="0" />
    <path
       style="opacity:0.3;fill:none;stroke:#000000;stroke-width:1px;stroke-linecap:butt;stroke-linejoin:miter;stroke-opacity:1"
       d="m 228.21429,272.18361 -14.10715,25"
       id="path3292"
       inkscape:connector-curvature="0" />
    <path
       style="fill:#000000;stroke:#000000;stroke-width:0.02232143;stroke-miterlimit:4;stroke-opacity:1;stroke-dasharray:none"
       d="m 298.06183,285.11269 c -1.11777,-0.006 -2.2223,0.30513 -3.2031,0.82978 -1.81629,0.97953 -3.17846,2.77847 -3.58394,4.80656 -0.16637,0.78296 -0.17296,1.59604 -0.0838,2.38961 0.24498,1.84343 1.25744,3.56626 2.74038,4.68553 1.13409,0.86664 2.53402,1.3789 3.96093,1.43717 0.68872,0.0141 1.38247,-0.0261 2.05009,-0.20539 1.29876,-0.3275 2.50364,-1.0284 3.41462,-2.01248 1.07707,-1.10797 1.74068,-2.59345 1.90843,-4.1259 0.0216,-0.55867 0.0414,-1.12275 -0.0242,-1.67881 -0.22151,-1.54319 -0.93681,-3.02962 -2.07489,-4.10499 -1.06069,-1.07773 -2.4991,-1.75856 -3.99033,-1.97452 -0.3689,-0.0489 -0.74258,-0.0474 -1.11417,-0.0466 z"
       id="path4062"
       inkscape:connector-curvature="0" />
    <text
       xml:space="preserve"
       style="font-size:10px;font-style:normal;font-weight:normal;line-height:125%;letter-spacing:0px;word-spacing:0px;fill:#000000;fill-opacity:1;stroke:none;font-family:Sans"
       x="263.21426"
       y="275.21933"
       id="text4064"
       sodipodi:linespacing="125%"><tspan
         sodipodi:role="line"
         id="tspan4066"
         x="263.21426"
         y="275.21933">1</tspan></text>
    <text
       xml:space="preserve"
       style="font-size:10px;font-style:normal;font-weight:normal;line-height:125%;letter-spacing:0px;word-spacing:0px;opacity:0.3;fill:#000000;fill-opacity:1;stroke:none;font-family:Sans"
       x="234.10715"
       y="245.04076"
       id="text4068"
       sodipodi:linespacing="125%"><tspan
         sodipodi:role="line"
         id="tspan4070"
         x="234.10715"
         y="245.04076">1</tspan></text>
    <text
       xml:space="preserve"
       style="font-size:10px;font-style:normal;font-weight:normal;line-height:125%;letter-spacing:0px;word-spacing:0px;opacity:0.3;fill:#000000;fill-opacity:1;stroke:none;font-family:Sans"
       x="213.57143"
       y="283.61218"
       id="text4072"
       sodipodi:linespacing="125%"><tspan
         sodipodi:role="line"
         id="tspan4074"
         x="213.57143"
         y="283.61218">1</tspan></text>
    <path
       style="opacity:0.3;fill:none;stroke:#000000;stroke-width:1px;stroke-linecap:butt;stroke-linejoin:miter;stroke-opacity:1"
       d="m 347.14286,244.68361 -6.42857,88.21429"
       id="path4076"
       inkscape:connector-curvature="0" />
    <text
       xml:space="preserve"
       style="font-size:10px;font-style:normal;font-weight:normal;line-height:125%;letter-spacing:0px;word-spacing:0px;opacity:0.3;fill:#000000;fill-opacity:1;stroke:none;font-family:Sans"
       x="297.0881"
       y="339.57861"
       id="text4064-3"
       sodipodi:linespacing="125%"><tspan
         sodipodi:role="line"
         id="tspan4066-2"
         x="297.0881"
         y="339.57861">1</tspan></text>
    <text
       xml:space="preserve"
       style="font-size:10px;font-style:normal;font-weight:normal;line-height:125%;letter-spacing:0px;word-spacing:0px;opacity:0.3;fill:#000000;fill-opacity:1;stroke:none;font-family:Sans"
       x="347.0881"
       y="290.4715"
       id="text4064-2"
       sodipodi:linespacing="125%"><tspan
         sodipodi:role="line"
         id="tspan4066-7"
         x="347.0881"
         y="290.4715">2</tspan></text>
    <text
       xml:space="preserve"
       style="font-size:10px;font-style:normal;font-weight:normal;line-height:125%;letter-spacing:0px;word-spacing:0px;fill:#000000;fill-opacity:1;stroke:none;font-family:Sans"
       x="315.12381"
       y="264.57864"
       id="text4064-5"
       sodipodi:linespacing="125%"><tspan
         sodipodi:role="line"
         id="tspan4066-77"
         x="315.12381"
         y="264.57864">1</tspan></text>
    <text
       xml:space="preserve"
       style="font-size:10px;font-style:normal;font-weight:normal;line-height:125%;letter-spacing:0px;word-spacing:0px;fill:#000000;fill-opacity:1;stroke:none;font-family:Sans"
       x="317.98096"
       y="313.5072"
       id="text4064-28"
       sodipodi:linespacing="125%"><tspan
         sodipodi:role="line"
         id="tspan4066-9"
         x="317.98096"
         y="313.5072">1</tspan></text>
    <text
       xml:space="preserve"
       style="font-size:10px;font-style:normal;font-weight:normal;line-height:125%;letter-spacing:0px;word-spacing:0px;fill:#000000;fill-opacity:1;stroke:none;font-family:Sans"
       x="228.65759"
       y="268.72217"
       id="text4064-38"
       sodipodi:linespacing="125%"><tspan
         sodipodi:role="line"
         id="tspan4066-75"
         x="228.65759"
         y="268.72217">3</tspan></text>
    <text
       xml:space="preserve"
       style="font-size:10px;font-style:normal;font-weight:normal;line-height:125%;letter-spacing:0px;word-spacing:0px;fill:#000000;fill-opacity:1;stroke:none;font-family:Sans"
       x="344.729"
       y="240.86501"
       id="text4064-1"
       sodipodi:linespacing="125%"><tspan
         sodipodi:role="line"
         id="tspan4066-27"
         x="344.729"
         y="240.86501">3</tspan></text>
    <text
       xml:space="preserve"
       style="font-size:10px;font-style:normal;font-weight:normal;line-height:125%;letter-spacing:0px;word-spacing:0px;fill:#000000;fill-opacity:1;stroke:none;font-family:Sans"
       x="337.05042"
       y="343.72217"
       id="text4064-59"
       sodipodi:linespacing="125%"><tspan
         sodipodi:role="line"
         id="tspan4066-29"
         x="337.05042"
         y="343.72217">3</tspan></text>
  </g>
</svg>
