<?xml version="1.0" encoding="UTF-8" standalone="no"?>
<!-- Created with Inkscape (http://www.inkscape.org/) -->

<svg
   xmlns:dc="http://purl.org/dc/elements/1.1/"
   xmlns:cc="http://creativecommons.org/ns#"
   xmlns:rdf="http://www.w3.org/1999/02/22-rdf-syntax-ns#"
   xmlns:svg="http://www.w3.org/2000/svg"
   xmlns="http://www.w3.org/2000/svg"
   xmlns:sodipodi="http://sodipodi.sourceforge.net/DTD/sodipodi-0.dtd"
   xmlns:inkscape="http://www.inkscape.org/namespaces/inkscape"
   width="201.17714"
   height="112.72211"
   id="svg3026"
   version="1.1"
   inkscape:version="0.48.5 r10040"
   sodipodi:docname="New document 3">
  <defs
     id="defs3028" />
  <sodipodi:namedview
     id="base"
     pagecolor="#ffffff"
     bordercolor="#666666"
     borderopacity="1.0"
     inkscape:pageopacity="0.0"
     inkscape:pageshadow="2"
     inkscape:zoom="3.959798"
     inkscape:cx="94.086854"
     inkscape:cy="29.899861"
     inkscape:document-units="px"
     inkscape:current-layer="layer1"
     showgrid="false"
     showborder="false"
     inkscape:showpageshadow="false"
     fit-margin-top="0"
     fit-margin-left="0"
     fit-margin-right="0"
     fit-margin-bottom="0"
     inkscape:window-width="1920"
     inkscape:window-height="1061"
     inkscape:window-x="0"
     inkscape:window-y="19"
     inkscape:window-maximized="0" />
  <metadata
     id="metadata3031">
    <rdf:RDF>
      <cc:Work
         rdf:about="">
        <dc:format>image/svg+xml</dc:format>
        <dc:type
           rdf:resource="http://purl.org/dc/dcmitype/StillImage" />
        <dc:title></dc:title>
      </cc:Work>
    </rdf:RDF>
  </metadata>
  <g
     inkscape:label="Layer 1"
     inkscape:groupmode="layer"
     id="layer1"
     transform="translate(-185.125,-405.70605)">
    <path
       transform="translate(1.517845,199.98214)"
       sodipodi:type="arc"
       style="fill:none;stroke:#000000;stroke-width:1;stroke-miterlimit:4;stroke-opacity:1;stroke-dasharray:none"
       id="path2989-3-5"
       sodipodi:cx="237.5"
       sodipodi:cy="264.86218"
       sodipodi:rx="7.5"
       sodipodi:ry="7.5"
       d="m 245,264.86218 c 0,4.14214 -3.35786,7.5 -7.5,7.5 -4.14214,0 -7.5,-3.35786 -7.5,-7.5 0,-4.14213 3.35786,-7.5 7.5,-7.5 4.14214,0 7.5,3.35787 7.5,7.5 z" />
    <path
       transform="translate(75.446425,199.98214)"
       sodipodi:type="arc"
       style="fill:none;stroke:#000000;stroke-width:1;stroke-miterlimit:4;stroke-opacity:1;stroke-dasharray:none"
       id="path2989-3-5-3"
       sodipodi:cx="237.5"
       sodipodi:cy="264.86218"
       sodipodi:rx="7.5"
       sodipodi:ry="7.5"
       d="m 245,264.86218 c 0,4.14214 -3.35786,7.5 -7.5,7.5 -4.14214,0 -7.5,-3.35786 -7.5,-7.5 0,-4.14213 3.35786,-7.5 7.5,-7.5 4.14214,0 7.5,3.35787 7.5,7.5 z" />
    <path
       style="fill:none;stroke:#000000;stroke-width:1px;stroke-linecap:butt;stroke-linejoin:miter;stroke-opacity:1"
       d="m 246.33929,464.77289 59.28571,0"
       id="path3045"
       inkscape:connector-curvature="0" />
    <path
       transform="translate(-37.232145,158.66071)"
       sodipodi:type="arc"
       style="opacity:0.3;fill:none;stroke:#000000;stroke-width:1;stroke-miterlimit:4;stroke-opacity:1;stroke-dasharray:none"
       id="path2989-3-5-8"
       sodipodi:cx="237.5"
       sodipodi:cy="264.86218"
       sodipodi:rx="7.5"
       sodipodi:ry="7.5"
       d="m 245,264.86218 c 0,4.14214 -3.35786,7.5 -7.5,7.5 -4.14214,0 -7.5,-3.35786 -7.5,-7.5 0,-4.14213 3.35786,-7.5 7.5,-7.5 4.14214,0 7.5,3.35787 7.5,7.5 z" />
    <path
       transform="translate(-44.375005,234.91071)"
       sodipodi:type="arc"
       style="opacity:0.3;fill:none;stroke:#000000;stroke-width:1;stroke-miterlimit:4;stroke-opacity:1;stroke-dasharray:none"
       id="path2989-3-5-9"
       sodipodi:cx="237.5"
       sodipodi:cy="264.86218"
       sodipodi:rx="7.5"
       sodipodi:ry="7.5"
       d="m 245,264.86218 c 0,4.14214 -3.35786,7.5 -7.5,7.5 -4.14214,0 -7.5,-3.35786 -7.5,-7.5 0,-4.14213 3.35786,-7.5 7.5,-7.5 4.14214,0 7.5,3.35787 7.5,7.5 z" />
    <path
       style="opacity:0.3;fill:none;stroke:#000000;stroke-width:1px;stroke-linecap:butt;stroke-linejoin:miter;stroke-opacity:1"
       d="m 233.66072,470.48718 -33.57143,25.71428"
       id="path3082"
       inkscape:connector-curvature="0" />
    <path
       style="opacity:0.3;fill:none;stroke:#000000;stroke-width:1px;stroke-linecap:butt;stroke-linejoin:miter;stroke-opacity:1"
       d="M 234.01786,459.23718 205.98214,428.16575"
       id="path3086"
       inkscape:connector-curvature="0" />
    <path
       transform="translate(103.42649,148.83105)"
       sodipodi:type="arc"
       style="fill:none;stroke:#000000;stroke-width:1;stroke-miterlimit:4;stroke-opacity:1;stroke-dasharray:none"
       id="path2989-3-5-3-9"
       sodipodi:cx="237.5"
       sodipodi:cy="264.86218"
       sodipodi:rx="7.5"
       sodipodi:ry="7.5"
       d="m 245,264.86218 c 0,4.14214 -3.35786,7.5 -7.5,7.5 -4.14214,0 -7.5,-3.35786 -7.5,-7.5 0,-4.14213 3.35786,-7.5 7.5,-7.5 4.14214,0 7.5,3.35787 7.5,7.5 z" />
    <path
       transform="translate(140.80213,176.10518)"
       sodipodi:type="arc"
       style="fill:none;stroke:#000000;stroke-width:1;stroke-miterlimit:4;stroke-opacity:1;stroke-dasharray:none"
       id="path2989-3-5-3-4"
       sodipodi:cx="237.5"
       sodipodi:cy="264.86218"
       sodipodi:rx="7.5"
       sodipodi:ry="7.5"
       d="m 245,264.86218 c 0,4.14214 -3.35786,7.5 -7.5,7.5 -4.14214,0 -7.5,-3.35786 -7.5,-7.5 0,-4.14213 3.35786,-7.5 7.5,-7.5 4.14214,0 7.5,3.35787 7.5,7.5 z" />
    <path
       transform="translate(140.29705,220.80442)"
       sodipodi:type="arc"
       style="fill:none;stroke:#000000;stroke-width:1;stroke-miterlimit:4;stroke-opacity:1;stroke-dasharray:none"
       id="path2989-3-5-3-7"
       sodipodi:cx="237.5"
       sodipodi:cy="264.86218"
       sodipodi:rx="7.5"
       sodipodi:ry="7.5"
       d="m 245,264.86218 c 0,4.14214 -3.35786,7.5 -7.5,7.5 -4.14214,0 -7.5,-3.35786 -7.5,-7.5 0,-4.14213 3.35786,-7.5 7.5,-7.5 4.14214,0 7.5,3.35787 7.5,7.5 z" />
    <path
       transform="translate(100.14349,245.55316)"
       sodipodi:type="arc"
       style="fill:none;stroke:#000000;stroke-width:1;stroke-miterlimit:4;stroke-opacity:1;stroke-dasharray:none"
       id="path2989-3-5-3-5"
       sodipodi:cx="237.5"
       sodipodi:cy="264.86218"
       sodipodi:rx="7.5"
       sodipodi:ry="7.5"
       d="m 245,264.86218 c 0,4.14214 -3.35786,7.5 -7.5,7.5 -4.14214,0 -7.5,-3.35786 -7.5,-7.5 0,-4.14213 3.35786,-7.5 7.5,-7.5 4.14214,0 7.5,3.35787 7.5,7.5 z" />
    <path
       style="fill:none;stroke:#000000;stroke-width:1px;stroke-linecap:butt;stroke-linejoin:miter;stroke-opacity:1"
       d="m 315.04133,472.28208 18.05647,32.19861"
       id="path3104"
       inkscape:connector-curvature="0" />
    <path
       style="fill:none;stroke:#000000;stroke-width:1px;stroke-linecap:butt;stroke-linejoin:miter;stroke-opacity:1"
       d="m 370.72598,483.14122 -51.0127,-14.77348"
       id="path3106"
       inkscape:connector-curvature="0" />
    <path
       style="fill:none;stroke:#000000;stroke-width:1px;stroke-linecap:butt;stroke-linejoin:miter;stroke-opacity:1"
       d="m 371.10479,443.11393 -50.63389,19.1929"
       id="path3108"
       inkscape:connector-curvature="0" />
    <path
       style="fill:none;stroke:#000000;stroke-width:1px;stroke-linecap:butt;stroke-linejoin:miter;stroke-opacity:1"
       d="m 336.3808,420.00669 -19.95051,38.13326"
       id="path3110"
       inkscape:connector-curvature="0" />
    <text
       xml:space="preserve"
       style="font-size:40px;font-style:normal;font-weight:normal;line-height:125%;letter-spacing:0px;word-spacing:0px;fill:#000000;fill-opacity:1;stroke:none;font-family:Sans"
       x="191.92899"
       y="457.41882"
       id="text3112"
       sodipodi:linespacing="125%"><tspan
         sodipodi:role="line"
         id="tspan3114"
         x="191.92899"
         y="457.41882"
         style="font-size:10px">Person</tspan></text>
    <text
       xml:space="preserve"
       style="font-size:40px;font-style:normal;font-weight:normal;line-height:125%;letter-spacing:0px;word-spacing:0px;fill:#000000;fill-opacity:1;stroke:none;font-family:Sans"
       x="272.27869"
       y="457.41882"
       id="text3112-2"
       sodipodi:linespacing="125%"><tspan
         sodipodi:role="line"
         id="tspan3114-3"
         x="272.27869"
         y="457.41882"
         style="font-size:10px">Friend</tspan></text>
    <text
       xml:space="preserve"
       style="font-size:40px;font-style:normal;font-weight:normal;line-height:125%;letter-spacing:0px;word-spacing:0px;fill:#000000;fill-opacity:1;stroke:none;font-family:Sans"
       x="310"
       y="467.89792"
       id="text3137"
       sodipodi:linespacing="125%"><tspan
         sodipodi:role="line"
         id="tspan3139"
         x="310"
         y="467.89792"
         style="font-size:9px">5</tspan></text>
    <path
       style="opacity:0;fill:#000000;stroke:#000000;stroke-width:0.25253814;stroke-miterlimit:4;stroke-opacity:1;stroke-dasharray:none"
       d="m 238.65689,458.00762 c -4.18668,0.0175 -7.43035,4.38401 -6.32134,8.39689 0.81103,4.56009 6.90686,7.05593 10.58293,4.08007 2.84496,-1.91514 3.96805,-5.95133 2.12289,-8.94143 -1.18404,-2.33077 -3.81753,-3.65237 -6.38448,-3.53553 z"
       id="path3149"
       inkscape:connector-curvature="0" />
    <path
       style="fill:#000000;stroke:#000000;stroke-width:0.02232143;stroke-miterlimit:4;stroke-opacity:1;stroke-dasharray:none"
       d="m 238.94062,457.76022 c -1.77589,0.006 -3.52575,0.72659 -4.80158,1.95447 -1.40263,1.3244 -2.23721,3.23998 -2.20246,5.17513 -0.0119,1.98319 0.8919,3.93583 2.3743,5.24372 1.39211,1.25109 3.29048,1.91545 5.15909,1.78056 1.78331,-0.11266 3.5174,-0.92154 4.72534,-2.24286 1.34877,-1.41743 2.04801,-3.42284 1.88747,-5.37433 -0.13602,-1.7448 -0.93501,-3.43196 -2.2266,-4.61648 -1.30107,-1.24857 -3.11448,-1.94663 -4.91556,-1.92021 z"
       id="path3153"
       inkscape:connector-curvature="0" />
  </g>
</svg>
